<svg viewBox="0 0 168 168" xmlns="http://www.w3.org/2000/svg">
  <circle cx="84" cy="84" r="84" fill="white"/>
  <path d="M84 0C37.64 0 0 37.64 0 84s37.64 84 84 84 84-37.64 84-84S130.36 0 84 0zM124.6 124.1c-1.6 2.5-4.8 3.2-7.3 1.6-20-12.5-45.1-15.3-74.9-8.5-2.8.6-5.6-1.2-6.2-4-0.6-2.8 1.2-5.6 4-6.2 31.5-7.2 58.5-4.1 80.6 9.7 2.5 1.6 3.2 4.8 1.6 7.3zM130 99c-1.9 3-5.9 3.8-8.9 1.9-22.9-14.6-57.9-18.9-85.3-10.5-3.3 1-6.8-0.8-7.8-4.1-1-3.3 0.8-6.8 4.1-7.8 30.7-9.2 68.5-4.5 93.7 11.6 3 1.9 3.8 5.9 1.9 8.9z" fill="#1DB954"/>
</svg>
